<?xml version="1.0" encoding="utf-8"?>
<?xml-stylesheet type="text/xsl" href="rss1.xsl"?>
<rss version="2.0" xmlns:atom="http://www.w3.org/2005/Atom" xmlns:content="http://purl.org/rss/1.0/modules/content/" xmlns:dc="http://purl.org/dc/elements/1.1/" xmlns:media="http://search.yahoo.com/mrss/">
<channel>
 <title>Getty</title>
 <link>http://www.gettyimg.com/</link>
 <atom:link href="http://www.gettyimg.com/" rel="self" type="application/rss+xml" />

 
                <item>
                <title><![CDATA[【Requests】[REQ AUD] - 2 Singles (Qobuz Lossless)]]></title>
                <link><![CDATA[https://sharemania.us/threads/2-singles-qobuz-lossless.244046/]]></link>
                <description><![CDATA[<article>
<blockquote class="messageText SelectQuoteContainer ugc baseHtml">
Trisha Yearwood<br>
<a href="https://www.qobuz.com/ie-en/album/greatest-hits-trisha-yearwood/0060251730329" target="_blank" class="externalLink" rel="nofollow">https://www.qobuz.com/ie-en/album/greatest-hits-trisha-yearwood/0060251730329</a><br>
<br>
Jim Brickman<br>
<a href="https://www.qobuz.com/be-nl/album/destiny-jim-brickman/0019341139621" target="_blank" class="externalLink" rel="nofollow">https://www.qobuz.com/be-nl/album/destiny-jim-brickman/0019341139621</a>
<div class="messageTextEndMarker">&nbsp;</div>
</blockquote>
</article>]]></description>
                <author><![CDATA[Share Mania US]]></author>
                </item>

                
                <item>
                <title><![CDATA[【HD Live Performances】FEED - Eurovision 2024 - Semi-Final 2 FEED HDTV H264 422 1080i MP2&amp;DolbyE-J Silver]]></title>
                <link><![CDATA[https://sharemania.us/threads/eurovision-2024-semi-final-2-feed-hdtv-h264-422-1080i-mp2-dolbye-j-silver.244047/]]></link>
                <description><![CDATA[<article>
<blockquote class="messageText SelectQuoteContainer ugc baseHtml">
<div style="text-align: center"><img src="https://i123.fastpic.org/big/2024/0508/2e/f474adcbbcf24c9d228ee9d6230dfa2e.png?r=1" class="bbCodeImage LbImage" alt="[​IMG]" data-url="https://i123.fastpic.org/big/2024/0508/2e/f474adcbbcf24c9d228ee9d6230dfa2e.png?r=1" style=""><br>
<br>
<a href="https://fastpic.org/view/123/2024/0510/_d4c5198f6159a26a3f241d2cbc4a70b2.png.html" target="_blank" class="externalLink" rel="nofollow"><img src="https://i123.fastpic.org/thumb/2024/0510/b2/_d4c5198f6159a26a3f241d2cbc4a70b2.jpeg" class="bbCodeImage LbImage" alt="[​IMG]" data-url="https://i123.fastpic.org/thumb/2024/0510/b2/_d4c5198f6159a26a3f241d2cbc4a70b2.jpeg"></a> <a href="https://fastpic.org/view/123/2024/0510/_506c2386f53a7018ab186a1e2f4a8caa.png.html" target="_blank" class="externalLink" rel="nofollow"><img src="https://i123.fastpic.org/thumb/2024/0510/aa/_506c2386f53a7018ab186a1e2f4a8caa.jpeg" class="bbCodeImage LbImage" alt="[​IMG]" data-url="https://i123.fastpic.org/thumb/2024/0510/aa/_506c2386f53a7018ab186a1e2f4a8caa.jpeg"></a> <a href="https://fastpic.org/view/123/2024/0510/_598e904bf723c306d8de9fb36887acd5.png.html" target="_blank" class="externalLink" rel="nofollow"><img src="https://i123.fastpic.org/thumb/2024/0510/d5/_598e904bf723c306d8de9fb36887acd5.jpeg" class="bbCodeImage LbImage" alt="[​IMG]" data-url="https://i123.fastpic.org/thumb/2024/0510/d5/_598e904bf723c306d8de9fb36887acd5.jpeg"></a> <a href="https://fastpic.org/view/123/2024/0510/_9dead78e3784c666c27a619641220e5d.png.html" target="_blank" class="externalLink" rel="nofollow"><img src="https://i123.fastpic.org/thumb/2024/0510/5d/_9dead78e3784c666c27a619641220e5d.jpeg" class="bbCodeImage LbImage" alt="[​IMG]" data-url="https://i123.fastpic.org/thumb/2024/0510/5d/_9dead78e3784c666c27a619641220e5d.jpeg"></a> <a href="https://fastpic.org/view/123/2024/0510/_204abcb2edca65b500ff654fa2d4f429.png.html" target="_blank" class="externalLink" rel="nofollow"><img src="https://i123.fastpic.org/thumb/2024/0510/29/_204abcb2edca65b500ff654fa2d4f429.jpeg" class="bbCodeImage LbImage" alt="[​IMG]" data-url="https://i123.fastpic.org/thumb/2024/0510/29/_204abcb2edca65b500ff654fa2d4f429.jpeg"></a> <a href="https://fastpic.org/view/123/2024/0510/_e0f4bdcbdf25942f79f642b6235a13ce.png.html" target="_blank" class="externalLink" rel="nofollow"><img src="https://i123.fastpic.org/thumb/2024/0510/ce/_e0f4bdcbdf25942f79f642b6235a13ce.jpeg" class="bbCodeImage LbImage" alt="[​IMG]" data-url="https://i123.fastpic.org/thumb/2024/0510/ce/_e0f4bdcbdf25942f79f642b6235a13ce.jpeg"></a><br>
​</div><br>
<div class="bbCodeBlock bbCodeCode">
<div class="type">Code:</div>
<pre>General
ID                                       : 17185 (0x4321)
Complete name                            : C:\Recordings\Eurovision 2024 - Semi-Final 2 FEED HDTV H264 422 1080i MP2&amp;DolbyE-J Silver.ts
Format                                   : MPEG-TS
File size                                : 40.2 GiB
Duration                                 : 2 h 20 min
Overall bit rate mode                    : Variable
Overall bit rate                         : 40.9 Mb/s
Frame rate                               : 25.000 FPS

Video
ID                                       : 512 (0x200)
Menu ID                                  : 1 (0x1)
Format                                   : AVC
Format/Info                              : Advanced Video Codec
Format profile                           : High 4:2:2@L4
Format settings                          : 3 Ref Frames
Format settings, CABAC                   : No
Format settings, Reference frames        : 3 frames
Format settings, GOP                     : M=3, N=15
Format settings, Slice count             : 2 slices per frame
Codec ID                                 : 27
Duration                                 : 2 h 20 min
Bit rate mode                            : Variable
Bit rate                                 : 35.4 Mb/s
Maximum bit rate                         : 36.5 Mb/s
Width                                    : 1 920 pixels
Height                                   : 1 080 pixels
Display aspect ratio                     : 16:9
Frame rate                               : 25.000 FPS
Color space                              : YUV
Chroma subsampling                       : 4:2:2
Bit depth                                : 8 bits
Scan type                                : Interlaced
Scan type, store method                  : Separated fields
Scan order                               : Top Field First
Bits/(Pixel*Frame)                       : 0.682
Stream size                              : 34.8 GiB (87%)
Color range                              : Limited
Color primaries                          : BT.709
Transfer characteristics                 : BT.709
Matrix coefficients                      : BT.709

Audio #1
ID                                       : 4112 (0x1010)
Menu ID                                  : 1 (0x1)
Format                                   : MPEG Audio
Format version                           : Version 1
Format profile                           : Layer 2
Format settings                          : Dual mono
Codec ID                                 : 3
Duration                                 : 2 h 20 min
Bit rate mode                            : Constant
Bit rate                                 : 384 kb/s
Channel(s)                               : 2 channels
Sampling rate                            : 48.0 kHz
Frame rate                               : 41.667 FPS (1152 SPF)
Compression mode                         : Lossy
Delay relative to video                  : 12 ms
Stream size                              : 387 MiB (1%)
Language                                 : English
Language, more info                      : Clean effects

Audio #2
ID                                       : 4128 (0x1020)
Menu ID                                  : 1 (0x1)
Format                                   : MPEG Audio
Format version                           : Version 1
Format profile                           : Layer 2
Format settings                          : Dual mono
Codec ID                                 : 3
Duration                                 : 2 h 20 min
Bit rate mode                            : Constant
Bit rate                                 : 384 kb/s
Channel(s)                               : 2 channels
Sampling rate                            : 48.0 kHz
Frame rate                               : 41.667 FPS (1152 SPF)
Compression mode                         : Lossy
Delay relative to video                  : 12 ms
Stream size                              : 387 MiB (1%)
Language                                 : English
Language, more info                      : Clean effects

Audio #3
ID                                       : 4144 (0x1030)
Menu ID                                  : 1 (0x1)
Format                                   : Dolby E
Format settings                          : Little
Muxing mode                              : SMPTE ST 302 / SMPTE ST 337
Codec ID                                 : 6
Duration                                 : 2 h 20 min
Bit rate mode                            : Constant
Bit rate                                 : 1 803 kb/s
Channel(s)                               : 6 channels
Channel layout                           : L C Ls R LFE Rs
Sampling rate                            : 48.0 kHz
Frame rate                               : 25.000 FPS (1920 SPF)
Bit depth                                : 20 bits
Delay relative to video                  : 38 ms
Stream size                              : 1.77 GiB (4%)
Title                                    : ESC 2024
Language                                 : English
Language, more info                      : Clean effects

Audio #4
ID                                       : 4160 (0x1040)
Menu ID                                  : 1 (0x1)
Format                                   : MPEG Audio
Format version                           : Version 1
Format profile                           : Layer 2
Format settings                          : Dual mono
Codec ID                                 : 3
Duration                                 : 2 h 20 min
Bit rate mode                            : Constant
Bit rate                                 : 384 kb/s
Channel(s)                               : 2 channels
Sampling rate                            : 48.0 kHz
Frame rate                               : 41.667 FPS (1152 SPF)
Compression mode                         : Lossy
Delay relative to video                  : 12 ms
Stream size                              : 387 MiB (1%)
Language                                 : English
Language, more info                      : Clean effects


</pre>
</div><div style="text-align: center">
<div class="bbCodeBlock bbCodeVfcHH HiddenContent">
<div class="attribution type">Hidden Content:</div>
<blockquote>You must either reply or click 'Like' to see the hidden information contained here.</blockquote>
</div></div>
<div class="messageTextEndMarker">&nbsp;</div>
</blockquote>
</article>]]></description>
                <author><![CDATA[ilya2129]]></author>
                </item>

                
                <item>
                <title><![CDATA[【Albums (lossless)】ALAC - Charli XCX - brat | Apple Music | Apple Digital Master | Pre-Release | .M4A 24bits ／ 44.1kHz]]></title>
                <link><![CDATA[https://sharemania.us/threads/charli-xcx-brat-apple-music-apple-digital-master-pre-release-m4a-24bits-%EF%BC%8F-44-1khz.244045/]]></link>
                <description><![CDATA[<article>
<blockquote class="messageText SelectQuoteContainer ugc baseHtml">
<div style="text-align: center"><img src="https://i.imgur.com/9DEbejS.png" class="bbCodeImage LbImage" alt="[​IMG]" data-url="https://i.imgur.com/9DEbejS.png" style=""><br>
<span style="font-family: 'Book Antiqua'"><span style="font-size: 12px"><br>
<span style="color: #4dff4d"><b><i>**IT IS NOT THE COMPLETE ALBUM. </i></b><i>It's just the pre-release, with only the <b>4 tracks</b> already released from the album. when the album is officially released, i will update.</i><br>
</span><br>
<span style="font-size: 12px"><span style="color: #000000">
<div class="bbCodeBlock bbCodeVfcHH HiddenContent">
<div class="attribution type">Hidden Content:</div>
<blockquote>You must reply before you can see the hidden data contained here.</blockquote>
</div></span></span></span></span>​</div>
<div class="messageTextEndMarker">&nbsp;</div>
</blockquote>
</article>]]></description>
                <author><![CDATA[Nuric]]></author>
                </item>

                
                <item>
                <title><![CDATA[【Albums (lossless)】ALAC - PRISCILLA - PRISCILLA | Apple Music | .M4A 24bits ／ 48.0kHz]]></title>
                <link><![CDATA[https://sharemania.us/threads/priscilla-priscilla-apple-music-m4a-24bits-%EF%BC%8F-48-0khz.244044/]]></link>
                <description><![CDATA[<article>
<blockquote class="messageText SelectQuoteContainer ugc baseHtml">
Thanks
<div class="messageTextEndMarker">&nbsp;</div>
</blockquote>
</article>]]></description>
                <author><![CDATA[Nuric]]></author>
                </item>

                </channel></rss>